<?xml version="1.0" encoding="UTF-8"?><svg xmlns="http://www.w3.org/2000/svg" viewBox="0 0 607 180.68"><defs><style>.d{fill:#b2e67a;}</style></defs><g id="a"/><g id="b"><g id="c"><g><g><path class="d" d="M110.66,87.43c-1.87-3-1.66-6.87,.41-9.73,31.56-43.74,76.7-3.52,61.02,15.14-16.88,20.11-37.98,17.58-49.32,14.14-5.46-1.65-9.35-6.47-9.89-12.15-.24-2.56-.48-4.62-2.21-7.4Z"/><path class="d" d="M95.56,75.53c-2.17,1.39-4.84,1.75-7.31,1-3.1-.95-7.71-1.78-11.2,.13-5.76,3.14-23.37-21.78-14.56-29.95,8.81-8.17-4.99-11.67,2.58-19.29,7.57-7.62,27.28-21.82,40.83,7.48,11,23.79-2.75,35.77-10.35,40.64Z"/><path class="d" d="M86,120.4s-21.4-1.54-15.29-20.23c6.1-18.69,25.48-12.67,27.37-4.53,1.89,8.13,6.88,21.93-12.08,24.76Z"/><path class="d" d="M113.46,174.53c13.95,13.64,31.87,1.94,36.55-9.39,11.25-27.22-28.06-55.82-42.43-50.6-3.59,1.3-.6,3.47-3.11,6.35-1.18,1.35-7.42,2.4-8.59,3.75-.95,1.1-2.63,10.74,1.07,25.7,.84,3.4,6.97,6.71,9.09,10.53,2.45,4.43,3.78,10.09,7.42,13.65Z"/><path class="d" d="M66.45,87.64c-.69-4.9-3.75-9.1-6.71-13.07-3.28-4.4-6.62-8.85-10.91-12.27-6.44-5.14-14.9-7.67-23.11-6.91-8.2,.76-16.06,4.81-21.44,11.05-1.62,1.88-3.04,3.99-3.75,6.37-1.29,4.32-.09,8.99,1.68,13.13,4.79,11.22,14.16,20.66,25.77,24.4,6.49,2.09,13.61,2.23,20.2,.47,5.47-1.47,13.27-4.81,15.85-10.21,1.84-3.85,3.01-8.7,2.41-12.95Z"/><path class="d" d="M70.76,160.03c12.45-9.74,5.33-31.81,1.82-33.78-1.85-1.04-4.17-1.07-5.92-2.26-2.24-1.52-3.09-4.59-5.41-5.98-1.5-.9-3.39-.92-5.08-.46-1.68,.46-3.21,1.36-4.71,2.25-3.97,2.36-31.99,16.62-30.47,35.29,.66,8.08,5.67,15.67,12.83,19.46,8.69,4.6,21.39,3.23,22.6-1.85,2.08-8.73,9.53-8.91,14.34-12.67Z"/></g><g><path class="d" d="M297.89,152.96h0c0,3.39-2.72,6.12-6.11,6.17-7.5,.11-19.43-1.87-21.49-15.1-5.81,9.44-15.98,15.49-31.95,15.49-23,0-38-10.89-38-32.19,0-27.6,22.75-34.62,43.81-39.46,14.04-3.15,24.69-3.63,24.69-17.19,0-12.83-6.54-18.88-23.24-18.88-12.68,0-20.33,5.51-24.02,14.68-1.45,3.6-5.38,5.51-9.08,4.34h0c-4.28-1.36-6.34-6.19-4.42-10.25,5.91-12.53,17.38-21.11,37.76-21.11,25.18,0,39.22,11.86,39.22,31.23v63.18c0,10.07,3.69,12.63,7.3,12.98,3.15,.3,5.53,2.96,5.53,6.12Zm-29.05-26.84v-34.13c-2.66,3.87-16.46,7.26-25.42,9.2-15.49,3.39-26.87,9.2-26.87,26.14,0,15.01,12.1,19.85,24.45,19.85,14.04-.48,24.69-7.99,27.84-21.06Z"/><path class="d" d="M365.67,45.72h0c0,3.65-3.13,6.54-6.76,6.2-.83-.08-1.65-.11-2.44-.11-16.71,0-23.23,8.23-25.66,15.97v89.08h-16.23V49.27c0-4.48,3.63-8.12,8.12-8.12h0c4.48,0,8.12,3.63,8.12,8.12v5.43c2.42-5.8,9.19-15.25,27.12-15.25,.55,0,1.1,.01,1.64,.03,3.39,.11,6.1,2.84,6.1,6.24Z"/><path class="d" d="M381.52,41.15h68.23c5.17,0,9.35,4.19,9.35,9.35h0c0,1.95-.61,3.84-1.74,5.43l-63.14,88.58h58.7c3.41,0,6.17,2.76,6.17,6.17h0c0,3.41-2.76,6.17-6.17,6.17h-68.26c-5.15,0-9.32-4.17-9.32-9.32h0c0-1.97,.62-3.88,1.78-5.48l64.31-88.57h-59.91c-3.41,0-6.17-2.76-6.17-6.17h0c0-3.41,2.76-6.17,6.17-6.17Z"/><path class="d" d="M489.6,103.36c.97,26.39,12.35,43.82,34.86,43.82,12.35-.41,21.89-6.59,26.11-16.91,1.35-3.3,4.68-5.34,8.2-4.74l.63,.11c4.96,.84,7.6,6.23,5.36,10.74-6.82,13.76-21.38,23.16-40.56,23.16-34.62,0-50.83-25.42-50.83-59.79s16.22-60.28,50.83-60.28c27.11,0,45.51,17.43,45.51,51.56v3.4c0,4.94-4.01,8.95-8.95,8.95h-71.18Zm64.88-12.35c0-25.17-11.62-39.21-30.02-39.21-20.82,0-32.19,15.73-34.37,39.21h64.39Z"/><path class="d" d="M590.78,148.75V8.11c0-4.48,3.63-8.11,8.11-8.11h0c4.48,0,8.11,3.63,8.11,8.11V148.75c0,4.48-3.63,8.11-8.11,8.11h0c-4.48,0-8.11-3.63-8.11-8.11Z"/></g></g></g></g></svg>