<?xml version="1.0" encoding="UTF-8"?><svg xmlns="http://www.w3.org/2000/svg" viewBox="0 0 224.39 79.32"><defs><style>.d{fill:#00ab62;}.e{fill:#131313;}</style></defs><g id="a"/><g id="b"><g id="c"><g><g><path class="d" d="M204.7,0V6.88c0,7.09-3.74,10.74-10.73,10.74h-7.15v-7.39c.27-6.78,4.11-10.23,11.01-10.23h6.87Z"/><path class="e" d="M221.89,24.35v17.03h-17.19v37.94h-17.88V28.34l-9.43,13.04s-21.18,.37-27.56,5.21v32.73h-17.88V24.4l17.88,.05v12.37s8.9-12.23,23.62-12.47h48.44Z"/><path class="e" d="M61.2,47.45v31.87h-17.88v-27.74c0-8.26-3.67-12.38-11-12.38-4.22,0-9.03,1.74-14.44,5.23v34.89H0V24.35l17.88-.05v10.36h.27c6.42-6.88,13.89-10.31,22.42-10.31,6.78,0,11.92,2.04,15.4,6.12s5.23,9.74,5.23,16.98Z"/><path class="e" d="M119.51,29.34c-4.35-3.3-11.21-4.95-20.56-4.95-7.48,0-16.06,.88-25.71,2.67v14.79c8.34-1.74,15.54-2.61,21.59-2.61,4.67,0,8.07,.68,10.18,2.06,2.1,1.37,3.16,3.76,3.16,7.15v4.82h-13.06c-7.98,0-14.79,1.67-20.43,5.01-5.63,3.35-8.45,8.83-8.45,16.44,0,1.6,.12,3.13,.37,4.59h19.85c-1.57-1.49-2.35-3.52-2.35-6.1,0-6.15,4.04-9.22,12.1-9.22h11.97v15.32h17.87v-31.82c0-8.8-2.17-14.86-6.53-18.15Z"/></g><g><path d="M220.76,76.31h-.97l-1.41-2.32h-1.27v2.32h-.83v-5.95h2.45c.58,0,1.03,.17,1.35,.5,.32,.34,.49,.77,.49,1.32,0,.43-.12,.8-.35,1.1-.23,.3-.56,.5-.98,.58l1.51,2.45Zm-3.65-5.21v2.14h1.49c.34,0,.61-.09,.81-.27,.2-.18,.3-.45,.3-.8s-.1-.6-.28-.79c-.19-.19-.45-.28-.78-.28h-1.53Z"/><path d="M218.4,79.31c-3.3,0-5.99-2.69-5.99-5.99s2.69-5.99,5.99-5.99,5.99,2.69,5.99,5.99-2.69,5.99-5.99,5.99Zm0-11.25c-2.9,0-5.26,2.36-5.26,5.26s2.36,5.26,5.26,5.26,5.26-2.36,5.26-5.26-2.36-5.26-5.26-5.26Z"/></g></g></g></g></svg>