<?xml version="1.0" encoding="utf-8"?>
<!-- Generator: Adobe Illustrator 26.1.0, SVG Export Plug-In . SVG Version: 6.00 Build 0)  -->
<svg version="1.1" id="Layer_1" xmlns="http://www.w3.org/2000/svg" xmlns:xlink="http://www.w3.org/1999/xlink" x="0px" y="0px"
	 viewBox="0 0 607 180.7" style="enable-background:new 0 0 607 180.7;" xml:space="preserve">
<style type="text/css">
	.st0{fill:#191919;}
</style>
<g id="a">
</g>
<g id="b">
	<g id="c">
		<g>
			<g>
				<path class="st0" d="M110.7,87.4c-1.9-3-1.7-6.9,0.4-9.7c31.6-43.7,76.7-3.5,61,15.1c-16.9,20.1-38,17.6-49.3,14.1
					c-5.5-1.7-9.3-6.5-9.9-12.2C112.6,92.3,112.4,90.2,110.7,87.4L110.7,87.4z"/>
				<path class="st0" d="M95.6,75.5c-2.2,1.4-4.8,1.8-7.3,1c-3.1-0.9-7.7-1.8-11.2,0.1c-5.8,3.1-23.4-21.8-14.6-30s-5-11.7,2.6-19.3
					s27.3-21.8,40.8,7.5C116.9,58.7,103.2,70.7,95.6,75.5L95.6,75.5z"/>
				<path class="st0" d="M86,120.4c0,0-21.4-1.5-15.3-20.2c6.1-18.7,25.5-12.7,27.4-4.5C100,103.8,105,117.6,86,120.4z"/>
				<path class="st0" d="M113.5,174.5c13.9,13.6,31.9,1.9,36.5-9.4c11.2-27.2-28.1-55.8-42.4-50.6c-3.6,1.3-0.6,3.5-3.1,6.3
					c-1.2,1.3-7.4,2.4-8.6,3.8c-0.9,1.1-2.6,10.7,1.1,25.7c0.8,3.4,7,6.7,9.1,10.5C108.5,165.3,109.8,171,113.5,174.5L113.5,174.5z"
					/>
				<path class="st0" d="M66.4,87.6c-0.7-4.9-3.8-9.1-6.7-13.1c-3.3-4.4-6.6-8.8-10.9-12.3c-6.4-5.1-14.9-7.7-23.1-6.9
					c-8.2,0.8-16.1,4.8-21.4,11.1c-1.6,1.9-3,4-3.8,6.4c-1.3,4.3-0.1,9,1.7,13.1C7,97.2,16.4,106.6,28,110.3
					c6.5,2.1,13.6,2.2,20.2,0.5c5.5-1.5,13.3-4.8,15.8-10.2C65.9,96.8,67,91.9,66.4,87.6L66.4,87.6z"/>
				<path class="st0" d="M70.8,160c12.4-9.7,5.3-31.8,1.8-33.8c-1.8-1-4.2-1.1-5.9-2.3c-2.2-1.5-3.1-4.6-5.4-6
					c-1.5-0.9-3.4-0.9-5.1-0.5c-1.7,0.5-3.2,1.4-4.7,2.2c-4,2.4-32,16.6-30.5,35.3c0.7,8.1,5.7,15.7,12.8,19.5
					c8.7,4.6,21.4,3.2,22.6-1.9C58.5,164,66,163.8,70.8,160L70.8,160z"/>
			</g>
			<g>
				<path class="st0" d="M297.9,153L297.9,153c0,3.4-2.7,6.1-6.1,6.2c-7.5,0.1-19.4-1.9-21.5-15.1c-5.8,9.4-16,15.5-31.9,15.5
					c-23,0-38-10.9-38-32.2c0-27.6,22.8-34.6,43.8-39.5c14-3.2,24.7-3.6,24.7-17.2c0-12.8-6.5-18.9-23.2-18.9
					c-12.7,0-20.3,5.5-24,14.7c-1.4,3.6-5.4,5.5-9.1,4.3l0,0c-4.3-1.4-6.3-6.2-4.4-10.2c5.9-12.5,17.4-21.1,37.8-21.1
					c25.2,0,39.2,11.9,39.2,31.2v63.2c0,10.1,3.7,12.6,7.3,13C295.5,147.1,297.9,149.8,297.9,153L297.9,153z M268.8,126.1V92
					c-2.7,3.9-16.5,7.3-25.4,9.2c-15.5,3.4-26.9,9.2-26.9,26.1c0,15,12.1,19.9,24.4,19.9C255,146.7,265.7,139.2,268.8,126.1z"/>
				<path class="st0" d="M365.7,45.7L365.7,45.7c0,3.7-3.1,6.5-6.8,6.2c-0.8-0.1-1.6-0.1-2.4-0.1c-16.7,0-23.2,8.2-25.7,16v89.1
					h-16.2V49.3c0-4.5,3.6-8.1,8.1-8.1l0,0c4.5,0,8.1,3.6,8.1,8.1v5.4c2.4-5.8,9.2-15.2,27.1-15.2c0.5,0,1.1,0,1.6,0
					C363,39.6,365.7,42.3,365.7,45.7L365.7,45.7z"/>
				<path class="st0" d="M381.5,41.2h68.2c5.2,0,9.4,4.2,9.4,9.3l0,0c0,2-0.6,3.8-1.7,5.4l-63.1,88.6h58.7c3.4,0,6.2,2.8,6.2,6.2
					l0,0c0,3.4-2.8,6.2-6.2,6.2h-68.3c-5.1,0-9.3-4.2-9.3-9.3l0,0c0-2,0.6-3.9,1.8-5.5l64.3-88.6h-59.9c-3.4,0-6.2-2.8-6.2-6.2l0,0
					C375.4,43.9,378.1,41.1,381.5,41.2L381.5,41.2z"/>
				<path class="st0" d="M489.6,103.4c1,26.4,12.4,43.8,34.9,43.8c12.3-0.4,21.9-6.6,26.1-16.9c1.3-3.3,4.7-5.3,8.2-4.7l0.6,0.1
					c5,0.8,7.6,6.2,5.4,10.7c-6.8,13.8-21.4,23.2-40.6,23.2c-34.6,0-50.8-25.4-50.8-59.8s16.2-60.3,50.8-60.3
					c27.1,0,45.5,17.4,45.5,51.6v3.4c0,4.9-4,8.9-9,8.9L489.6,103.4L489.6,103.4z M554.5,91c0-25.2-11.6-39.2-30-39.2
					c-20.8,0-32.2,15.7-34.4,39.2H554.5z"/>
				<path class="st0" d="M590.8,148.8V8.1c0-4.5,3.6-8.1,8.1-8.1l0,0c4.5,0,8.1,3.6,8.1,8.1v140.6c0,4.5-3.6,8.1-8.1,8.1l0,0
					C594.4,156.9,590.8,153.2,590.8,148.8z"/>
			</g>
		</g>
	</g>
</g>
</svg>
