<?xml version="1.0" encoding="UTF-8"?><svg xmlns="http://www.w3.org/2000/svg" viewBox="0 0 785.01 193.28"><defs><style>.d{fill:#191919;}</style></defs><g id="a"/><g id="b"><g id="c"><g><g><path class="d" d="M135.99,4.93C130.84-.03,123.52-1.36,116.91,1.46c-6.69,2.85-10.84,9.12-10.84,16.33l-.15,31.36c-5.42,.7-12.38,.33-17.35-.13l-.14-31.2c0-7.24-4.15-13.52-10.85-16.37-6.61-2.82-13.93-1.49-19.09,3.48-6.71,6.44-10.4,15.12-10.4,24.42,0,11.79,13.57,27.93,27.62,30.85l.07,15.9H17.82c-2.98,0-4.19-2.29-4.48-2.99-.37-.86-1.02-3.09,.9-5.08,4-4.15,9.36-6.44,15.12-6.44,8.06,0,15.5,4.71,18.96,11.99l11.66-5.54c-5.59-11.76-17.61-19.36-30.62-19.36-9.3,0-17.97,3.69-24.42,10.41C-.03,64.25-1.36,71.57,1.45,78.18c2.85,6.69,9.12,10.84,16.37,10.84H88.75l-.13-27.38c42.22,3.21,57.77-15.22,57.77-32.28,0-9.3-3.7-17.98-10.41-24.42ZM61.01,29.36c0-5.76,2.29-11.12,6.43-15.12,2-1.92,4.23-1.28,5.09-.9,.7,.3,2.98,1.5,2.98,4.5l.14,29.69c-10.41-2.62-14.65-11.41-14.65-18.18Zm57.86,15.91l.11-27.45c0-2.98,2.29-4.19,2.99-4.48,.85-.38,3.08-1.02,5.08,.9,4.15,4,6.43,9.36,6.43,15.12,0,6.99-3.65,11.74-14.61,15.91Z"/><path class="d" d="M193.04,78.18c-2.85,6.69-9.12,10.84-16.37,10.84H105.75l.05-12.91h70.87c2.98,0,4.19-2.29,4.49-2.99,.37-.86,1.01-3.09-.91-5.08-4-4.15-9.36-6.44-15.12-6.44-8.06,0-15.5,4.71-18.96,11.99l-11.66-5.54c5.59-11.76,17.61-19.36,30.62-19.36,9.3,0,17.98,3.69,24.42,10.4,4.97,5.17,6.29,12.48,3.48,19.1Z"/><path class="d" d="M70.57,193.28c-4.41,0-8.7-1.69-12.07-4.93-6.71-6.45-10.4-15.12-10.4-24.42,0-13.01,7.6-25.03,19.36-30.62l5.54,11.66c-7.28,3.46-11.99,10.9-11.99,18.96,0,5.76,2.29,11.13,6.44,15.12,2,1.92,4.22,1.27,5.09,.9,.7-.3,2.99-1.5,2.99-4.48l.27-58.29H17.82c-2.98,0-4.19,2.29-4.48,2.99-.37,.86-1.02,3.09,.9,5.09,3.99,4.15,9.36,6.44,15.12,6.44,8.05,0,15.5-4.71,18.96-11.99l11.66,5.54c-5.59,11.76-17.6,19.36-30.62,19.36-9.3,0-17.98-3.69-24.43-10.4C-.03,129.04-1.36,121.72,1.46,115.11c2.85-6.69,9.11-10.84,16.36-10.84H88.75l-.32,71.23c0,7.22-4.15,13.49-10.84,16.33-2.29,.98-4.68,1.46-7.02,1.46Z"/><path class="d" d="M123.93,193.28c-2.34,0-4.72-.48-7.02-1.46-6.69-2.85-10.84-9.12-10.84-16.36l-.32-71.2h70.93c7.25,0,13.51,4.15,16.36,10.84,2.82,6.61,1.49,13.93-3.47,19.09-6.45,6.71-15.13,10.4-24.43,10.4-13.01,0-25.03-7.6-30.62-19.36l11.66-5.54c3.46,7.28,10.9,11.99,18.96,11.99,5.76,0,11.12-2.29,15.12-6.44,1.92-2,1.27-4.22,.9-5.09-.3-.7-1.51-2.99-4.48-2.99h-57.97l.27,58.26c0,3.01,2.29,4.21,2.99,4.51,.86,.37,3.09,1.02,5.09-.9,4.15-3.99,6.44-9.36,6.44-15.12,0-8.06-4.71-15.5-11.99-18.96l5.54-11.66c11.76,5.59,19.36,17.6,19.36,30.62,0,9.3-3.69,17.98-10.4,24.42-3.37,3.24-7.65,4.93-12.07,4.93Z"/></g><g><path class="d" d="M312.67,165.99h-73.87v-18.98l16.72-1.97V48.35l-16.72-2.07V27.4h110.76l.79,42.49h-20.07l-2.46-20.75h-46.13v36.49h39.54v21.34h-39.54v38.06l30.98,1.97v18.98Z"/><path class="d" d="M510.68,165.99h-60v-18.98l16.72-1.97v-36.49h-62.07v36.49l16.92,1.97v18.98h-60v-18.98l16.92-1.97V48.54l-16.92-2.26V27.4h60v18.89l-16.92,2.26v39.93h62.07V48.54l-16.72-2.26V27.4h60v18.89l-17.12,2.26v96.49l17.12,1.97v18.98Z"/><path class="d" d="M527.59,131.56c0-1.57,.16-3.1,.49-4.57,.33-1.48,.62-2.57,.89-3.29l.49-.98,25.97-2.06c-.66,1.57-.98,3.31-.98,5.21,0,5.9,2.13,10.57,6.39,14.02,4.26,3.44,10.16,5.16,17.71,5.16,16.92,0,25.38-5.05,25.38-15.15,0-3.08-.89-5.77-2.66-8.07-1.77-2.29-4.15-4.2-7.13-5.7-2.98-1.51-6.41-2.87-10.28-4.08-3.87-1.21-7.94-2.41-12.2-3.59-4.26-1.18-8.52-2.47-12.79-3.89-4.26-1.41-8.33-3.2-12.2-5.36-3.87-2.16-7.3-4.67-10.28-7.52-2.99-2.85-5.36-6.49-7.13-10.92-1.77-4.43-2.66-9.46-2.66-15.1,0-5.05,1-9.87,3-14.46,2-4.59,4.97-8.79,8.9-12.59,3.94-3.8,9.23-6.85,15.89-9.15,6.65-2.29,14.25-3.44,22.77-3.44s16.15,.95,22.67,2.85c6.52,1.9,11.72,4.56,15.59,7.97,3.87,3.41,6.75,7.25,8.65,11.51,1.9,4.26,2.85,8.95,2.85,14.07,0,1.64-.17,3.21-.49,4.72-.33,1.51-.69,2.59-1.08,3.25l-.49,1.08-24.59,2.26c.72-1.57,1.08-3.44,1.08-5.61,0-5.97-2-10.72-6-14.26-4-3.54-10-5.31-18-5.31-7.41,0-13.26,1.48-17.56,4.43-4.3,2.95-6.44,6.98-6.44,12.1,0,3.15,.89,5.9,2.66,8.26,1.77,2.36,4.15,4.3,7.13,5.8,2.98,1.51,6.39,2.85,10.23,4.03,3.84,1.18,7.9,2.35,12.2,3.49,4.29,1.15,8.57,2.38,12.84,3.69,4.26,1.31,8.31,3.02,12.15,5.12,3.84,2.1,7.24,4.51,10.23,7.23,2.98,2.72,5.36,6.23,7.13,10.53,1.77,4.29,2.66,9.2,2.66,14.7s-1,10.59-3,15.25c-2,4.66-5,8.82-9,12.49s-9.34,6.54-16.03,8.61c-6.69,2.07-14.43,3.1-23.21,3.1s-17.21-1-24.1-3c-6.89-2-12.28-4.72-16.18-8.16-3.9-3.44-6.79-7.23-8.65-11.36s-2.8-8.56-2.8-13.28Z"/><path class="d" d="M724.61,27.4l45.94,117.64,14.46,1.97v18.98h-56.36v-18.98l15.84-1.97c-2.56-6.56-5.51-14.07-8.85-22.52h-51.93l-8.65,22.52,15.93,1.97v18.98h-55.67v-18.98l14.75-1.97,37.48-96.69-17.31-1.57V27.4h54.39Zm-19.18,38.46l-13.87,35.9h36.2l-13.67-35.9-3.84-10.23h-1.38c-1.77,5.31-2.92,8.72-3.44,10.23Z"/></g></g></g></g></svg>