<?xml version="1.0" encoding="UTF-8"?><svg xmlns="http://www.w3.org/2000/svg" viewBox="0 0 259.55 66.13"><g id="a"/><g id="b"><g id="c"><g><g><path d="M24.24,0c-.81,0-1.7,.1-2.65,.3-1.89,.4-4.95,.62-8.39,.62-.75,0-1.47-.01-2.14-.03-.13,0-.25,0-.37,0-3.25,0-6.11,1.28-8.04,3.59C.77,6.73,0,9.68,.52,12.57c.49,2.71,.99,4.69,1.39,6.28,1.27,5.02,1.69,6.71-1.35,19.08-1.64,6.69,.33,11.61,5.15,12.84l.1,.02s.5,.07,1.17,.07c1.37,0,3.9-.29,5.5-2.2,1.28-1.54,1.67-3.74,1.15-6.56-1.27-6.97-7.32-14.99-8.6-18.85,6.61,4.73,13.8,4.03,14.09,4.03,4.56,0,5.93-4.51,6.02-5.63,.12-1.39-.35-2.81-1.25-3.79-.86-.94-2.03-1.43-3.38-1.43-.7,0-1.45,.14-2.23,.41-7.19,2.53-11.14,3.9-12.77,4.46-.04,.01-.07,.04-.11,.06-.6-2.18-.14-3.83,2-5.85,1.89-1.78,4.03-2.57,6.96-2.57,1.19,0,2.42,.12,3.61,.24,1.2,.12,2.44,.24,3.65,.24,1.72,0,4.27-.22,6.58-2.11,1.94-1.59,2.8-5.1,1.88-7.66C29.6,2.29,28.19,0,24.24,0Z"/><path d="M32.03,49.32c-5.64-6.26,.92-45.15,11.15-49.01,.56-.21,1.14-.31,1.74-.31,2.58,0,4.7,1.93,4.82,4.39,.18,3.53-3.55,5.44-7.28,6.97-19.21,7.87,5.6,21.83,4.51,32.71-.55,5.51-9.74,11.03-14.94,5.25Z"/></g><g><path d="M75.11,52.05c-3.11,0-5.92-.71-8.43-2.13-2.5-1.42-4.39-3.44-5.65-6.06l.81-.74v8.12h-5.08V0h5.08V23.08l-.81-1.42c1.44-2.3,3.37-4.13,5.79-5.48,2.41-1.35,5.18-2.03,8.29-2.03,3.43,0,6.49,.82,9.17,2.47,2.68,1.65,4.81,3.89,6.36,6.73,1.56,2.84,2.33,6.09,2.33,9.75s-.78,6.85-2.33,9.71c-1.56,2.87-3.68,5.12-6.36,6.77-2.68,1.65-5.74,2.47-9.17,2.47Zm-.27-5.08c2.44,0,4.61-.61,6.53-1.83,1.92-1.22,3.43-2.88,4.53-4.98,1.11-2.1,1.66-4.45,1.66-7.07s-.55-5.03-1.66-7.11c-1.11-2.07-2.62-3.72-4.53-4.94-1.92-1.22-4.1-1.83-6.53-1.83s-4.64,.61-6.6,1.83c-1.96,1.22-3.52,2.88-4.67,4.97-1.15,2.1-1.73,4.46-1.73,7.07s.57,4.98,1.73,7.07c1.15,2.1,2.71,3.76,4.67,4.98,1.96,1.22,4.16,1.83,6.6,1.83Z"/><path d="M113.52,52.05c-3.38,0-6.44-.82-9.17-2.47-2.73-1.65-4.88-3.91-6.46-6.8-1.58-2.89-2.37-6.16-2.37-9.81s.77-6.89,2.3-9.71c1.53-2.82,3.62-5.04,6.26-6.67,2.64-1.62,5.61-2.44,8.9-2.44,2.62,0,4.95,.49,7.01,1.46,2.05,.97,3.8,2.28,5.25,3.93,1.44,1.65,2.55,3.5,3.32,5.55,.77,2.05,1.15,4.16,1.15,6.33,0,.45-.02,.96-.07,1.52-.05,.56-.11,1.14-.2,1.73h-30.66v-4.74h27.75l-2.44,2.03c.41-2.48,.12-4.71-.85-6.67-.97-1.96-2.36-3.52-4.16-4.67-1.81-1.15-3.84-1.73-6.09-1.73s-4.34,.59-6.26,1.76c-1.92,1.17-3.42,2.81-4.5,4.91-1.08,2.1-1.51,4.59-1.29,7.48-.23,2.89,.24,5.4,1.39,7.55,1.15,2.14,2.73,3.8,4.74,4.97,2.01,1.17,4.16,1.76,6.46,1.76,2.66,0,4.9-.63,6.7-1.9,1.8-1.26,3.27-2.84,4.4-4.74l4.33,2.3c-.72,1.62-1.83,3.12-3.32,4.5-1.49,1.38-3.26,2.48-5.31,3.32-2.05,.83-4.32,1.25-6.8,1.25Z"/><path d="M144.12,52.05c-2.3,0-4.35-.44-6.16-1.32-1.81-.88-3.23-2.09-4.26-3.62-1.04-1.53-1.56-3.29-1.56-5.28s.41-3.62,1.22-5.18c.81-1.56,2.07-2.88,3.79-3.96,1.71-1.08,3.9-1.85,6.57-2.3l14.21-2.37v4.6l-12.99,2.17c-2.62,.45-4.5,1.29-5.65,2.5-1.15,1.22-1.73,2.66-1.73,4.33s.64,3,1.93,4.13c1.29,1.13,2.94,1.69,4.97,1.69,2.48,0,4.65-.53,6.5-1.59,1.85-1.06,3.29-2.49,4.33-4.3,1.04-1.8,1.56-3.81,1.56-6.02v-9.21c0-2.16-.79-3.93-2.37-5.28-1.58-1.35-3.63-2.03-6.16-2.03-2.21,0-4.15,.55-5.82,1.66-1.67,1.11-2.91,2.54-3.72,4.3l-4.6-2.5c.68-1.53,1.75-2.93,3.22-4.2,1.47-1.26,3.15-2.27,5.04-3.01,1.9-.74,3.86-1.12,5.89-1.12,2.66,0,5.02,.52,7.07,1.56,2.05,1.04,3.65,2.47,4.81,4.3,1.15,1.83,1.73,3.94,1.73,6.33v24.91h-5.08v-7.24l.74,.74c-.63,1.35-1.61,2.58-2.94,3.69-1.33,1.11-2.89,1.99-4.67,2.64-1.78,.65-3.73,.98-5.85,.98Z"/><path d="M181.45,52.05c-2.53,0-4.83-.6-6.9-1.79-2.08-1.2-3.71-2.86-4.91-5.01-1.2-2.14-1.79-4.61-1.79-7.41V14.96h5.08v22.27c0,1.94,.4,3.64,1.18,5.11,.79,1.47,1.9,2.61,3.32,3.42,1.42,.81,3.06,1.22,4.91,1.22s3.5-.42,4.94-1.25c1.44-.83,2.57-2.03,3.38-3.59,.81-1.56,1.22-3.42,1.22-5.58V14.96h5.08V51.24h-5.08v-7.04l1.15,.27c-.86,2.35-2.32,4.2-4.4,5.55-2.08,1.35-4.47,2.03-7.17,2.03Z"/><path d="M218.27,51.64c-3.25,0-5.75-.95-7.51-2.84-1.76-1.9-2.64-4.6-2.64-8.12V20.04h-6.7v-5.08h1.69c1.53,0,2.75-.51,3.65-1.52,.9-1.01,1.35-2.29,1.35-3.82v-3.05h5.08V14.96h7.99v5.08h-7.99v20.64c0,1.22,.18,2.29,.54,3.22,.36,.92,.98,1.66,1.86,2.2,.88,.54,2.06,.81,3.55,.81,.36,0,.79-.02,1.29-.07,.5-.04,.92-.09,1.29-.14v4.54c-.54,.13-1.15,.24-1.83,.3-.68,.07-1.22,.1-1.62,.1Z"/><path d="M229.97,66.13c-.72,0-1.46-.06-2.2-.17s-1.48-.3-2.2-.57v-4.74c.45,.04,1.03,.12,1.73,.24,.7,.11,1.41,.17,2.13,.17,2.21,0,3.9-.46,5.08-1.39,1.17-.92,2.32-2.7,3.45-5.31l2.3-5.42-.14,4.47-15.36-38.44h5.48l12.59,31.74h-1.42l12.52-31.74h5.62l-16.58,40.88c-.72,1.76-1.64,3.43-2.74,5.01-1.11,1.58-2.49,2.85-4.16,3.82-1.67,.97-3.7,1.46-6.09,1.46Z"/></g></g></g></g></svg>