<?xml version="1.0" encoding="utf-8"?>
<!-- Generator: Adobe Illustrator 26.1.0, SVG Export Plug-In . SVG Version: 6.00 Build 0)  -->
<svg version="1.1" id="Layer_1" xmlns="http://www.w3.org/2000/svg" xmlns:xlink="http://www.w3.org/1999/xlink" x="0px" y="0px"
	 viewBox="0 0 607 161.4" style="enable-background:new 0 0 607 161.4;" xml:space="preserve">
<style type="text/css">
	.st0{fill:#191919;}
</style>
<g id="a">
</g>
<g id="b">
	<g id="c">
		<g>
			<path class="st0" d="M134.9,43.7L87.4,5.4c-9-7.2-21.8-7.2-30.8,0L9.1,43.7C3.4,48.4,0,55.4,0,62.8v74.1
				c0,13.6,11,24.5,24.5,24.5h94.9c13.6,0,24.5-11,24.5-24.5V62.8C144,55.4,140.6,48.4,134.9,43.7L134.9,43.7z M72,131.3
				c0,7.3-5.1,13.1-11.4,13.1h-21c-6.3,0-11.4-5.9-11.4-13.1l0,0c0-7.3,5.1-13.2,11.4-13.2h21C66.9,118.1,72,124,72,131.3L72,131.3z
				 M115.9,98.6c0,7.3-5.9,13.2-13.2,13.2H41.3c-7.3,0-13.1-5.9-13.1-13.2V85.5h74.6C110,85.5,115.9,91.4,115.9,98.6L115.9,98.6
				L115.9,98.6z M115.9,66c0,7.3-5.9,13.2-13.2,13.2H41.3c-7.3,0-13.1-5.9-13.1-13.2l0,0c0-7.3,5.9-13.2,13.1-13.2h74.6L115.9,66
				L115.9,66z"/>
			<g>
				<path class="st0" d="M204.4,58.1v23.8h49.3v20h-49.3v40.4h-22V54.8c0-9.1,7.4-16.4,16.4-16.4h57.8v19.8L204.4,58.1L204.4,58.1z"
					/>
				<path class="st0" d="M263.1,66.6h21.1v75.7h-21.1V66.6z"/>
				<path class="st0" d="M367.5,142.3h-21.1V98.2c0-9.9-4-14.6-12.9-14.6c-10,0-15.7,5.8-15.7,15.9v42.8h-21.1V66.6h20.6v11
					c4.2-8.2,13.1-13.1,24.2-13.1c16.2,0,26,10.2,26,28.2L367.5,142.3L367.5,142.3z"/>
				<path class="st0" d="M457.2,33.6v108.7h-20.8V131c-4.3,8.3-14,13.4-24.8,13.4c-19.8,0-34.1-16.5-34.1-39.9s14.4-39.9,34.1-39.9
					c10.7,0,19.9,4.6,24.5,12.8V33.6H457.2L457.2,33.6z M417.8,83.5c-11.7,0-19,8.3-19,20.9s7.3,20.9,19,20.9s19-8.3,19-20.9
					S429.6,83.5,417.8,83.5z"/>
				<path class="st0" d="M543.6,66.6v75.7h-20.8V131c-4.3,8.3-14,13.4-24.8,13.4c-19.8,0-34.1-16.5-34.1-39.9s14.4-39.9,34.1-39.9
					c10.8,0,20.5,5.1,24.8,13.4V66.6C522.8,66.6,543.6,66.6,543.6,66.6z M504.3,83.5c-11.7,0-19,8.3-19,20.9s7.3,20.9,19,20.9
					s19-8.3,19-20.9S516,83.5,504.3,83.5L504.3,83.5z"/>
				<path class="st0" d="M607,86.2c-3.1-0.6-6.2-0.9-9.2-0.9c-12.9,0-18.7,6.1-18.7,20.3v36.7H558V66.6h20.6v12.5
					c3.7-8.8,11.9-14,22-14c2.5,0,4.6,0.3,6.4,1L607,86.2L607,86.2z"/>
			</g>
		</g>
	</g>
</g>
</svg>
