<?xml version="1.0" encoding="utf-8"?>
<!-- Generator: Adobe Illustrator 26.1.0, SVG Export Plug-In . SVG Version: 6.00 Build 0)  -->
<svg version="1.1" id="Layer_1" xmlns="http://www.w3.org/2000/svg" xmlns:xlink="http://www.w3.org/1999/xlink" x="0px" y="0px"
	 viewBox="0 0 603.4 94.6" style="enable-background:new 0 0 603.4 94.6;" xml:space="preserve">
<style type="text/css">
	.st0{fill:#191919;}
</style>
<g id="a">
</g>
<g id="b">
	<g id="c">
		<g>
			<g>
				<g>
					<path class="st0" d="M133.8,93.2h-27.3c-24.4-12-40.8-19-55-32.2C38.3,48.8,44,35.9,54.9,25.1C69.4,10.7,93.3,0,93.3,0h67.2
						c-22.3,11.7-50.3,23.8-70.8,35.8C52.2,57.6,117.2,85.1,133.8,93.2L133.8,93.2z"/>
					<path class="st0" d="M60.8,0C40.7,18.3,6,58.3,51.5,93.2H0L26.8,0H60.8z"/>
				</g>
				<g>
					<path class="st0" d="M226.9,93.2l-15.7-39.6l-16,13.8l-7.4,25.8h-18.6L196.2,0h18.6l-12,41.7L250.4,0h23l-47.2,40.8l21.6,52.4
						H226.9L226.9,93.2z"/>
					<path class="st0" d="M246.8,67c3-26.5,20.9-40.7,44-40.7c17.6,0,28.4,11.2,26.6,26.9c-0.4,3.2-1.6,8.2-3.2,11.4h-49.1
						c-0.2,1-0.4,1.9-0.5,2.9c-1,8.8,4.8,13.8,15.5,13.8c7.5,0,16.4-2.5,23.6-6.6l1.9,11.2c-9.2,5.6-19.6,8.6-30.2,8.6
						C255.6,94.6,244.9,83.7,246.8,67L246.8,67z M267.4,53.7h31.8c0.2-0.6,0.3-1.1,0.3-1.7c0.9-7.5-3.6-12.5-11.9-12.5
						C277.6,39.5,270.4,45,267.4,53.7L267.4,53.7z"/>
					<path class="st0" d="M309.7,86.1l9.1-11.8c7.5,5,13.9,7.5,20.1,7.5c8.5,0,13.2-3.1,13.8-7.9c0.3-2.9-1.3-4.7-6.7-5.9l-8.7-1.7
						c-10.9-2.1-15.7-8.2-14.7-16.9c1.5-13.5,13-23.2,32.6-23.2c10,0,18.5,2.8,24.4,7.5l-9,11.7c-4.7-3.5-11.1-6.4-17.6-6.4
						c-7.1,0-11.7,2.7-12.2,7.4c-0.3,2.8,1.3,4.3,6.3,5.3l8.7,1.7c11,2.1,16.2,8.6,15.2,17.9c-1.7,14.6-14.6,23.3-34.8,23.3
						C325.5,94.6,316.4,91.6,309.7,86.1L309.7,86.1z"/>
					<path class="st0" d="M381.9,79.2c0.2-1.7,0.5-3.5,1.2-5.4l9.2-32.2h-12.5l3.9-14h12.6l5.4-18.7h17.6L414,27.6h15.3l-3.9,14H410
						l-9.1,31.5c-0.1,0.6-0.5,1.8-0.5,2.4c-0.4,3.3,1.7,4.7,6.1,4.7c2.6,0,5.3-0.6,8-1.1l-3.6,12.4c-3.6,1.5-7.5,2.5-13.2,2.5
						C386.3,94,380.8,89.3,381.9,79.2L381.9,79.2z"/>
					<path class="st0" d="M420.2,93.2l18.8-65.6h16.8l-3.4,11.9c6.5-9.8,13-12.7,20.9-12.7c2.5,0,4.5,0.3,5.6,0.8l-4.8,16.9
						c-2.4-0.6-5-1-7.7-1c-8.3,0-15.7,5.4-19.1,17.2l-9.2,32.5H420.2L420.2,93.2z"/>
					<path class="st0" d="M469.5,67c3-26.5,20.8-40.7,44-40.7c17.6,0,28.4,11.2,26.7,26.9c-0.4,3.2-1.6,8.2-3.2,11.4h-49.1
						c-0.2,1-0.4,1.9-0.5,2.9c-1,8.8,4.8,13.8,15.5,13.8c7.5,0,16.4-2.5,23.6-6.6l1.9,11.2c-9.2,5.6-19.6,8.6-30.2,8.6
						C478.3,94.6,467.6,83.7,469.5,67L469.5,67z M490.1,53.7h31.8c0.2-0.6,0.3-1.1,0.3-1.7c0.8-7.5-3.6-12.5-11.9-12.5
						C500.3,39.5,493.1,45,490.1,53.7L490.1,53.7z"/>
					<path class="st0" d="M538.3,93.2L565.1,0h17.8l-26.8,93.2H538.3L538.3,93.2z"/>
				</g>
			</g>
			<g>
				<path class="st0" d="M590,7.5V1.3h-2.2V0h6v1.3h-2.2v6.2H590z"/>
				<path class="st0" d="M601.9,7.5v-6l-2.2,6h-1.3l-2.2-6v6h-1.5V0h2.4l1.9,5.3L601,0h2.4v7.5H601.9L601.9,7.5z"/>
			</g>
		</g>
	</g>
</g>
</svg>
