<?xml version="1.0" encoding="utf-8"?>
<!-- Generator: Adobe Illustrator 26.1.0, SVG Export Plug-In . SVG Version: 6.00 Build 0)  -->
<svg version="1.1" id="Layer_1" xmlns="http://www.w3.org/2000/svg" xmlns:xlink="http://www.w3.org/1999/xlink" x="0px" y="0px"
	 viewBox="0 0 607 154.2" style="enable-background:new 0 0 607 154.2;" xml:space="preserve">
<style type="text/css">
	.st0{fill:#191919;}
</style>
<g id="a">
</g>
<g id="b">
	<g id="c">
		<g>
			<path class="st0" d="M131.8,0H22.4C10,0,0,10,0,22.4v109.4c0,12.4,10,22.4,22.4,22.4h109.4c12.4,0,22.4-10,22.4-22.4V22.4
				C154.2,10,144.2,0,131.8,0z M85.1,42.3c12.1,0,21.8,9.8,21.8,21.9S97.2,86,85.1,86s-21.8-9.8-21.8-21.8S73.1,42.3,85.1,42.3z
				 M128,123.1H55.7c-16.2,0-29.4-13.2-29.4-29.4v-0.1h-0.1V31.1h29.5v62.6h42.9C114.9,93.7,128,106.8,128,123.1L128,123.1
				L128,123.1z"/>
			<g>
				<path class="st0" d="M254.5,102.2v18.2h-64.1V27.6H210v74.6H254.5z"/>
				<path class="st0" d="M327.6,52.8v67.6H309v-10.1c-3.8,7.4-12.5,11.9-22.1,11.9c-17.6,0-30.5-14.7-30.5-35.7s12.9-35.7,30.5-35.7
					c9.7,0,18.3,4.5,22.1,11.9V52.8H327.6z M292.5,67.9c-10.5,0-17,7.4-17,18.7s6.5,18.7,17,18.7s17-7.4,17-18.7
					S302.9,67.9,292.5,67.9z"/>
				<path class="st0" d="M403.8,52.8l-25.4,67.6h-20.5l-25.4-67.6h20.1l15.6,45.8l15.5-45.8H403.8z"/>
				<path class="st0" d="M418.6,92.1c1.7,9.4,8.1,14.1,18.1,14.1c7.2,0,13-2.4,17.5-7.3L465,110c-6.5,7.8-16.6,12.2-28.9,12.2
					c-21.9,0-36.4-13.9-36.4-35.4s13.9-35.9,34.6-35.9s33.3,13.8,33.3,34.7c0,2-0.1,4.2-0.4,6.5L418.6,92.1L418.6,92.1z M448.8,79.9
					c-0.7-8.5-5.8-13.1-14.4-13.1s-14.2,4.6-15.8,13.1H448.8z"/>
				<path class="st0" d="M477.3,26h18.8v97h-18.8V26z"/>
				<path class="st0" d="M512.2,26H531v97h-18.8V26z"/>
				<path class="st0" d="M558.1,94.8c1.7,9.4,8.1,14.1,18.2,14.1c7.2,0,13-2.4,17.5-7.3l10.7,11.1c-6.5,7.8-16.6,12.2-28.9,12.2
					c-21.9,0-36.4-13.9-36.4-35.4s13.9-35.9,34.6-35.9S607,67.3,607,88.3c0,2-0.1,4.2-0.4,6.5L558.1,94.8L558.1,94.8z M588.3,82.6
					c-0.7-8.5-5.8-13.1-14.4-13.1s-14.2,4.6-15.8,13.1H588.3z"/>
			</g>
		</g>
	</g>
</g>
</svg>
