<?xml version="1.0" encoding="UTF-8"?><svg id="a" xmlns="http://www.w3.org/2000/svg" viewBox="0 0 335.64 130.2"><defs><style>.b{fill:#020a19;}</style></defs><path class="b" d="M24.36,13.66V0H10.63V13.66H0v11.45H10.63v43.39h13.74V31.82l-9.32-6.72h22.66V13.66h-13.33Z"/><rect class="b" x="41.06" y="13.65" width="13.74" height="54.86"/><path class="b" d="M102.08,13.66v7.54c-1.72-2.83-4.13-4.99-7.24-6.52-3.09-1.5-6.44-2.27-10.01-2.27-7.58,0-13.62,2.75-18.09,8.26-4.47,5.51-6.72,12.29-6.72,20.35s2.25,14.94,6.72,20.45c4.47,5.51,10.51,8.26,18.09,8.26,3.57,0,6.92-.76,10.01-2.27,3.11-1.52,5.51-3.69,7.24-6.52v31.88h13.74V13.66h-13.74Zm-3.47,39.04c-2.65,3.17-6.18,4.75-10.59,4.75s-7.8-1.56-10.37-4.69c-2.59-3.15-3.89-7.06-3.89-11.73s1.3-8.48,3.89-11.63c2.57-3.13,6.04-4.69,10.37-4.69s7.86,1.56,10.55,4.69c2.69,3.15,4.03,7.02,4.03,11.63s-1.32,8.5-3.99,11.67Z"/><path class="b" d="M148.17,69.95c-8.75,0-15.7-2.62-20.87-7.85-5.17-5.23-7.75-12.26-7.75-21.07s2.53-15.39,7.59-20.76c5.06-5.37,11.73-8.06,19.99-8.06s14.15,2.58,18.49,7.75c4.34,5.17,6.51,12.02,6.51,20.56,0,1.65-.14,3.38-.41,5.17h-38.12c0,6.82,5.61,13.03,14.34,13.35,9.29,.34,16.14-2.69,19.63-4.7,1.01-.58,2.21,.38,1.85,1.49-1.63,5.02-6.6,14.14-21.25,14.14Zm-14.67-34.3h25.21c0-3.72-1-6.65-3-8.78-2-2.13-4.86-3.2-8.57-3.2-3.93,0-7.09,1.03-9.5,3.1-2.41,2.07-3.79,5.03-4.13,8.88Z"/><path class="b" d="M199.07,69.74c-7.58,0-13.6-2.75-18.08-8.26-4.48-5.51-6.72-12.33-6.72-20.45s2.24-14.84,6.72-20.35c4.48-5.51,10.5-8.26,18.08-8.26,3.58,0,6.92,.76,10.02,2.27,3.1,1.52,5.51,3.69,7.23,6.51v-7.54h13.74v54.86h-13.74v-7.54c-1.72,2.82-4.13,4.99-7.23,6.51-3.1,1.51-6.44,2.27-10.02,2.27Zm3.2-12.29c4.41,0,7.94-1.58,10.59-4.75,2.65-3.17,3.98-7.06,3.98-11.67s-1.34-8.49-4.03-11.62c-2.69-3.13-6.2-4.7-10.54-4.7s-7.8,1.57-10.38,4.7c-2.58,3.13-3.87,7.01-3.87,11.62s1.29,8.59,3.87,11.73c2.58,3.13,6.04,4.7,10.38,4.7Z"/><path class="b" d="M254.86,69.95c-7.51,0-14.09-1.65-19.73-4.96v-12.4h.72c5.51,3.58,11.84,5.37,19.01,5.37,2.34,0,4.36-.41,6.04-1.24,1.69-.83,2.53-2.17,2.53-4.03,0-1.03-.31-1.91-.93-2.63-.62-.72-1.29-1.24-2.01-1.55-.72-.31-1.7-.64-2.94-.98l-8.37-2.07c-4.48-1.17-8.06-3.06-10.74-5.68-2.69-2.62-4.03-5.96-4.03-10.02,0-5.65,2.03-9.99,6.1-13.02,4.06-3.03,9.23-4.55,15.5-4.55,7.23,0,13.39,1.65,18.49,4.96v12.4h-.83c-4.96-3.58-10.85-5.37-17.67-5.37-2.27,0-4.2,.41-5.79,1.24-1.59,.83-2.38,2.14-2.38,3.93,0,1.45,.5,2.51,1.5,3.2,1,.69,2.46,1.28,4.39,1.76l8.26,2.17c4.41,1.1,7.99,3,10.74,5.68,2.75,2.69,4.13,6.03,4.13,10.02,0,5.92-2.03,10.37-6.1,13.33-4.06,2.96-9.37,4.44-15.91,4.44Z"/><path class="b" d="M286.05,84.52v-.83l12.09-23.97-22.21-45.35v-.72h15.29l14.46,31.92,14.77-31.92h15.19v.72l-34.4,70.15h-15.19Z"/><path class="b" d="M12.29,75.42c32.18,42.36,110.63,49.18,153.04-.07,.4-.46,1.09-.51,1.55-.12,.32,.27,.44,.69,.36,1.07-1.76,8.02-5.53,15.69-10.62,22.51-31.81,41.65-104.32,41.91-136.35,.39-5.09-6.89-8.75-14.8-9.94-22.96-.17-1.09,1.32-1.72,1.97-.82h0Z"/></svg>