<?xml version="1.0" encoding="UTF-8"?><svg xmlns="http://www.w3.org/2000/svg" viewBox="0 0 632.5 145.73"><defs><style>.d{fill:#111;}</style></defs><g id="a"/><g id="b"><g id="c"><g><path class="d" d="M259.82,145.73h-85.56c-14.39,0-26.09-11.7-26.09-26.09V26.09c0-14.39,11.7-26.09,26.09-26.09h85.56c14.39,0,26.09,11.7,26.09,26.09V119.64c0,14.39-11.7,26.09-26.09,26.09ZM174.26,17.08c-4.97,0-9,4.04-9,9V119.64c0,4.97,4.04,9,9,9h85.56c4.97,0,9-4.04,9-9V26.09c0-4.97-4.04-9-9-9h-85.56Z"/><g><path class="d" d="M632.5,145.73h-17.08V26.09c0-4.97-4.04-9-9-9h-85.56c-4.97,0-9,4.04-9,9v119.64h-17.08V26.09c0-14.39,11.7-26.09,26.09-26.09h85.56c14.39,0,26.09,11.7,26.09,26.09v119.64Z"/><rect class="d" x="496.62" y="64.32" width="132.71" height="17.08"/></g><g><path class="d" d="M457.1,145.73h-17.08V26.09c0-4.97-4.04-9-9-9h-85.56c-4.97,0-9,4.04-9,9v119.64h-17.08V26.09c0-14.39,11.7-26.09,26.09-26.09h85.56c14.39,0,26.09,11.7,26.09,26.09v119.64Z"/><rect class="d" x="321.22" y="64.32" width="132.7" height="17.08"/></g><path class="d" d="M89.98,145.73H0V0H89.98c14.39,0,26.09,11.7,26.09,26.09v29.23c0,6.75-2.58,12.91-6.8,17.55,4.22,4.64,6.8,10.8,6.8,17.55v29.23c0,14.39-11.7,26.09-26.09,26.09Zm-72.9-17.08H89.98c4.97,0,9-4.04,9-9v-29.23c0-4.97-4.04-9-9-9H17.08v47.24Zm0-64.32H89.98c4.97,0,9-4.04,9-9V26.09c0-4.97-4.04-9-9-9H17.08v47.24Z"/></g></g></g></svg>