<?xml version="1.0" encoding="utf-8"?>
<!-- Generator: Adobe Illustrator 26.1.0, SVG Export Plug-In . SVG Version: 6.00 Build 0)  -->
<svg version="1.1" id="Layer_1" xmlns="http://www.w3.org/2000/svg" xmlns:xlink="http://www.w3.org/1999/xlink" x="0px" y="0px"
	 viewBox="0 0 607 159.6" style="enable-background:new 0 0 607 159.6;" xml:space="preserve">
<style type="text/css">
	.st0{fill:#191919;}
</style>
<g id="a">
</g>
<g id="b">
	<g id="c">
		<g>
			<g>
				<path class="st0" d="M83.6,5.6L69,45.8L52.1,1h-4.8L31,45.8L14.1,1H0l25.7,68.2h5.8l15.8-43.5l16.4,43.5h5.8L94.4,1h-4.2
					C87.3,1,84.6,2.8,83.6,5.6z"/>
				<path class="st0" d="M122.2,5L91.8,69.2h9.5l10.3-21.7h24.6l10.3,21.7H161L128.6,1l0,0C125.9,1,123.4,2.6,122.2,5L122.2,5z
					 M115.6,39l8.2-17.4l8.2,17.4C132.1,39,115.6,39,115.6,39z"/>
				<path class="st0" d="M185.4,0h-6.1c-3.9,0-7,3.2-7,7v61.2H220v-8.6h-34.6V0z"/>
				<polygon class="st0" points="212.4,9.6 236.4,9.6 236.4,69.2 249.5,69.2 249.5,9.6 273.5,9.6 273.5,1 212.4,1 				"/>
				<path class="st0" d="M296.6,37.4h26.6v-8.6h-26.6V9.6h32.7V1h-38.8c-3.9,0-7,3.2-7,7v61.2h47.8v-8.6h-34.6V37.4L296.6,37.4z"/>
				<path class="st0" d="M382.6,40.5c-0.3-0.6-0.7-1.1-1.1-1.6c2.8-1.3,5.2-3,7.2-5.2c2.7-3,4.1-6.8,4.1-11.3v-2
					c0-3.1-0.7-5.9-2.1-8.4c-1.4-2.4-3.3-4.5-5.6-6.1c-2.3-1.6-5.1-2.8-8.2-3.6c-3.1-0.8-6.4-1.2-9.8-1.2h-17.6c-3.9,0-7,3.2-7,7
					v61.2h13.2V41.8h9.6c0.9,0,1.8,0.2,2.6,0.7c0.8,0.5,1.4,1.1,1.9,1.9l13.6,24.9h15.5L382.6,40.5L382.6,40.5z M379.8,20.5v2
					c0,1.3-0.3,2.7-0.9,3.9c-0.6,1.3-1.5,2.4-2.6,3.4c-1.1,1-2.5,1.8-4,2.4c-1.6,0.6-3.3,0.9-5.2,0.9h-11.5V9.6h11.5
					c1.9,0,3.6,0.3,5.2,0.9c1.6,0.6,2.9,1.4,4,2.4c1.1,1,2,2.2,2.6,3.5C379.5,17.8,379.8,19.2,379.8,20.5L379.8,20.5z"/>
			</g>
			<g>
				<path class="st0" d="M581.3,7.1v61.4l-25.2-16.2c-4.8-3.1-7.6-8.3-7.6-14V7.1H581.3z"/>
				<path class="st0" d="M487.4,97v62.6h-12.9v-45.2c0-5.7,2.9-10.9,7.6-14L487.4,97L487.4,97z"/>
				<path class="st0" d="M607,7.1v94.1c0,13.2-14.6,21.2-25.7,14l0,0v44.4h-32.8v-56.5c0-5.7-2.9-10.9-7.6-14L517.4,74
					c-5.5-3.6-12.6-3.6-18.1,0l-44.8,28.9c-11.1,7.2-25.7-0.8-25.7-14V7.1h32.8V83l12.9-8.3V7.1h12.9v59.3l24.4-15.8
					c5.5-3.5,12.6-3.5,18.1,0l64.3,41.5v-85H607L607,7.1z"/>
			</g>
			<g>
				<polygon class="st0" points="89.5,117.3 51.6,117.3 51.6,87.3 38.8,87.3 38.8,155.5 51.6,155.5 51.6,125.5 89.5,125.5 
					89.5,155.5 102.4,155.5 102.4,87.3 89.5,87.3 				"/>
				<path class="st0" d="M176.4,96.7c-3.3-3-7.3-5.3-11.8-7c-4.5-1.7-9.5-2.5-14.8-2.5s-10.3,0.8-14.8,2.5c-4.5,1.7-8.5,4-11.8,7
					c-3.3,3-6,6.6-7.8,10.8c-1.8,4.2-2.8,8.8-2.8,13.9s0.9,9.7,2.8,13.9s4.5,7.8,7.8,10.8c3.3,3,7.3,5.3,11.8,6.9
					c4.5,1.6,9.5,2.5,14.8,2.5s10.3-0.8,14.8-2.5c4.5-1.6,8.5-3.9,11.8-6.9c3.3-3,5.9-6.7,7.8-10.8c1.8-4.2,2.8-8.8,2.8-13.9
					s-0.9-9.7-2.8-13.9C182.3,103.3,179.7,99.7,176.4,96.7L176.4,96.7z M173.1,131.1c-0.9,3.1-2.4,5.9-4.3,8.2
					c-2,2.4-4.4,4.3-7.6,5.7c-3.1,1.4-6.9,2.2-11.4,2.2s-8.3-0.8-11.4-2.2c-3.1-1.4-5.6-3.4-7.6-5.7c-1.9-2.4-3.4-5.1-4.3-8.2
					c-0.9-3.1-1.4-6.4-1.4-9.7s0.5-6.6,1.4-9.7c0.9-3.1,2.3-5.8,4.3-8.2c1.9-2.4,4.5-4.3,7.6-5.7c3.1-1.4,6.9-2.2,11.4-2.2
					s8.2,0.8,11.4,2.2c3.1,1.4,5.6,3.3,7.6,5.7c2,2.4,3.4,5.1,4.3,8.2c0.9,3.1,1.4,6.4,1.4,9.7S174,128,173.1,131.1L173.1,131.1z"/>
				<polygon class="st0" points="234.5,135.4 211.6,87.3 197.1,87.3 197.1,155.5 205.4,155.5 205.4,104.2 229.7,155.5 234,155.5 
					258.6,103.6 258.6,155.5 271.4,155.5 271.4,87.3 257.3,87.3 				"/>
				<polygon class="st0" points="304.4,123.5 331.1,123.5 331.1,115.2 304.4,115.2 304.4,95.5 337.2,95.5 337.2,87.3 291.5,87.3 
					291.5,155.5 339.1,155.5 339.1,147.3 304.4,147.3 				"/>
				<path class="st0" d="M396.7,127.1c-1.3-2.4-3-4.5-5-6.1c-2-1.6-4.2-3-6.8-4.1c-2.4-1.1-4.9-2.2-7.4-3.1l-4.7-2
					c-1.9-0.8-3.7-1.7-5.4-2.8c-1.7-1-3.1-2.1-4.4-3.4c-1-1-1.5-2-1.5-3.1c0-1.4,0.3-2.4,1-3.2c0.8-0.9,1.7-1.6,2.9-2.2
					c1.3-0.6,2.8-1,4.4-1.2c1.7-0.2,3.4-0.4,5-0.4c2.9,0,5.4,0.3,7.3,0.9c2,0.6,3.9,1.4,5.8,2.4l1.4,0.7l5.2-6.7l-1.9-1
					c-2.6-1.4-5.4-2.5-8.5-3.3c-3.1-0.8-6.2-1.2-9.1-1.2c-3.6,0-6.9,0.4-10,1.2c-3.1,0.8-5.9,2-8.1,3.6c-2.3,1.6-4.1,3.5-5.4,5.8
					c-1.3,2.2-2,4.8-2,7.7c0,2.7,0.7,5,2.1,7c1.3,1.9,3,3.6,5.2,5.1c2,1.4,4.2,2.8,6.7,3.9l13.1,6.2c1.7,0.8,3.2,1.7,4.5,2.7
					c1.2,0.9,2.1,1.8,2.7,2.9c0.6,1,0.9,2.2,0.9,3.6c0,1.9-0.4,3.5-1,4.7c-0.7,1.2-1.6,2.3-2.8,3.1c-1.2,0.8-2.7,1.4-4.4,1.8
					c-1.8,0.4-3.8,0.6-5.9,0.6c-1.3,0-2.6-0.1-4-0.2c-1.3-0.1-2.7-0.3-4.1-0.7c-1.3-0.3-2.7-0.9-4.1-1.7c-1.4-0.8-2.8-1.8-4.1-3
					l-1.3-1.2l-5.8,6l1.4,1.3c2,1.8,4,3.3,6,4.3s3.9,1.8,5.8,2.3c1.9,0.5,3.8,0.8,5.5,0.9c1.7,0.1,3.3,0.2,4.9,0.2
					c3.6,0,7.1-0.4,10.4-1.3c3.3-0.9,6.3-2.1,8.9-3.8c2.6-1.7,4.7-3.7,6.3-6c1.6-2.4,2.5-5.2,2.5-8.2
					C398.7,132.6,398,129.6,396.7,127.1L396.7,127.1z"/>
			</g>
		</g>
	</g>
</g>
</svg>
