<?xml version="1.0" encoding="UTF-8"?><svg xmlns="http://www.w3.org/2000/svg" viewBox="0 0 837.95 185.58"><g id="a"/><g id="b"><g id="c"><g><path d="M133.46,22.7c0,5.32-1.05,12.4-3.15,21.22-2.38,9.67-4.52,16.99-6.41,21.97-1.89,4.98-4.62,9.53-8.19,13.66-3.57,4.13-8.09,6.91-13.56,8.3-5.47,1.4-12.68,2.1-21.65,2.1-10.65,0-18.32-1.89-23.01-5.67-9-7.25-7.06-16.82-6.72-18.52,.03-.14,.06-.28,.1-.4,6.31,.98,14.22,1.47,23.75,1.47,8.26,0,13.59-1.29,15.97-3.88,2.38-2.6,4.63-8.65,6.73-18.18,1.82-8.83,2.73-13.94,2.73-15.35,0-2.8-.98-4.62-2.95-5.46-1.96-.84-5.88-1.26-11.77-1.26h-25.86l-10.07,42.74-14.53,61.65c-1.84,7.8-8.79,13.3-16.8,13.3H0L30.06,13.29C31.9,5.5,38.86,0,46.86,0h54.86c11.63,0,19.82,1.89,24.59,5.67,4.76,3.79,7.15,9.46,7.15,17.03Z"/><path d="M180.54,140.4l20.39-88.06c-4.34-1.54-10.37-2.31-18.07-2.31-5.33,0-9.21,.21-11.67,.63-2.45,.42-4.87,2-7.25,4.73-2.38,2.73-4.24,6.17-5.57,10.3-1.33,4.13-3.12,10.76-5.36,19.86-2.38,10.09-3.57,17.73-3.57,22.91,0,4.62,1.08,7.5,3.26,8.62,2.17,1.12,6.2,1.68,12.08,1.68s12.19-.42,19.34-1.26c-.84,5.75-4.1,11.28-9.77,16.61-5.67,5.32-14.26,7.99-25.75,7.99-10.79,0-18.46-2.24-23.01-6.73-4.55-4.48-6.83-11.28-6.83-20.39,0-7.99,1.89-19.76,5.68-35.31,5.04-16.53,8.96-27.18,11.77-31.95,5.32-9.53,13.87-15.69,25.64-18.5,7.15-1.68,16.18-2.52,27.11-2.52,18.63,0,34.47,2.52,47.5,7.57l-25.43,106.14h-30.48Z"/><path d="M207.86,184.74l7.78-22.49c1.28,.14,16.11,1.56,26.06-5.25,5.32-3.65,9.95-9.32,13.87-17.03-2.24-.98-3.43-2.59-3.57-4.83l-8.97-87.32c-1.05-10.18,6.94-19.03,17.17-19.03h11.35l1.89,51.91,1.26,32.58h.42c3.22-7.15,8.62-17.79,16.18-31.95l20.58-38.11c4.8-8.89,14.09-14.44,24.2-14.44h13.23l-66.83,113.91c-8.83,15.83-17.59,26.94-26.27,33.31-8.69,6.37-20.18,9.56-34.47,9.56-2.52,0-7.15-.28-13.87-.84Z"/><path d="M391.34,140.4l20.39-88.06c-4.34-1.54-10.37-2.31-18.07-2.31-5.33,0-9.21,.21-11.67,.63-2.45,.42-4.87,2-7.25,4.73-2.38,2.73-4.24,6.17-5.57,10.3-1.33,4.13-3.12,10.76-5.36,19.86-2.38,10.09-3.57,17.73-3.57,22.91,0,4.62,1.08,7.5,3.26,8.62,2.17,1.12,6.2,1.68,12.08,1.68s12.19-.42,19.34-1.26c-.84,5.75-4.1,11.28-9.77,16.61-5.67,5.32-14.26,7.99-25.75,7.99-10.79,0-18.46-2.24-23.01-6.73-4.55-4.48-6.83-11.28-6.83-20.39,0-7.99,1.89-19.76,5.68-35.31,5.04-16.53,8.96-27.18,11.77-31.95,5.32-9.53,13.87-15.69,25.64-18.5,7.15-1.68,16.18-2.52,27.11-2.52,18.63,0,34.47,2.52,47.5,7.57l-25.43,106.14h-30.48Z"/><path d="M627.36,28.79l-54.43,111.6h-34.89c-1.82,0-3.26-.59-4.31-1.79-1.05-1.19-1.51-2.7-1.37-4.52l-.84-43.3c0-.14,.21-10.16,.63-30.06h-.42l-14.29,30.27-24.8,49.39h-39.09l-1.42-94.08c-.15-9.64,7.63-17.52,17.26-17.52h10.85l.21,45.19c0,16.81,.07,30.13,.21,39.93h.63c3.78-8.83,10.09-22.07,18.91-39.72l17.59-35.75c2.9-5.9,8.91-9.64,15.49-9.64h23.25v45.61c0,3.92,.03,10.23,.11,18.91,.07,8.69,.1,15.55,.1,20.6h.42c5.47-12.47,11.63-25.5,18.5-39.09l18.14-36.46c2.92-5.86,8.9-9.57,15.46-9.57h18.1Z"/><path d="M669.18,140.4l20.39-88.06c-4.34-1.54-10.37-2.31-18.07-2.31-5.33,0-9.21,.21-11.66,.63-2.45,.42-4.87,2-7.25,4.73-2.38,2.73-4.24,6.17-5.57,10.3-1.33,4.13-3.12,10.76-5.36,19.86-2.38,10.09-3.57,17.73-3.57,22.91,0,4.62,1.08,7.5,3.26,8.62,2.17,1.12,6.2,1.68,12.08,1.68s12.19-.42,19.34-1.26c-.84,5.75-4.1,11.28-9.77,16.61-5.68,5.32-14.26,7.99-25.75,7.99-10.79,0-18.46-2.24-23.01-6.73-4.55-4.48-6.83-11.28-6.83-20.39,0-7.99,1.89-19.76,5.68-35.31,5.04-16.53,8.97-27.18,11.77-31.95,5.32-9.53,13.87-15.69,25.64-18.5,7.15-1.68,16.18-2.52,27.11-2.52,18.63,0,34.47,2.52,47.5,7.57l-25.43,106.14h-30.47Z"/><path d="M696.5,184.74l7.78-22.49c1.28,.14,16.11,1.57,26.06-5.25,5.32-3.65,9.95-9.32,13.87-17.03-2.24-.98-3.43-2.59-3.57-4.83l-8.97-87.32c-1.05-10.18,6.94-19.03,17.17-19.03h11.35l1.89,51.91,1.26,32.58h.42c3.22-7.15,8.62-17.79,16.18-31.95l23.48-43.48c3.01-5.58,8.85-9.06,15.19-9.06h19.34l-66.84,113.91c-8.83,15.83-17.59,26.94-26.27,33.31-8.69,6.37-20.18,9.56-34.47,9.56-2.52,0-7.14-.28-13.87-.84Z"/></g></g></g></svg>