<?xml version="1.0" encoding="UTF-8"?><svg xmlns="http://www.w3.org/2000/svg" viewBox="0 0 266.22 133.83"><g id="a"/><g id="b"><g id="c"><g><g><g><path d="M182.07,67.27c-10.98,0-21.17-3.38-25.98-8.62-2.12-2.31-3.12-4.9-2.9-7.48,.45-5.28,5.92-9.77,13-12.55-7.85-3.33-11.95-9.46-12.7-17.73l-.29-3.21h28.88v5.89h-22.11c3.2,10.76,16.05,12.01,22.11,12.01v5.89c-12.22,0-22.43,6.18-22.78,10.21-.1,1.13,.46,2.25,1.14,2.99,3.07,3.34,10.95,6.71,21.64,6.71v5.89Z"/><path d="M103.46,67.27h-6.13c0-14.97-1.89-27.27-4.2-35.21-3.08-10.59-5.53-14.38-10.18-.46-2.73,8.15-5.3,20.98-5.3,35.68h-6.13c0-22.14-8.21-38.65-17.44-43.08l-.12,43.08h-6.17V16.41s18.43,.01,26.26,25.64c2.46-12.91,6.89-24.6,13.12-25.55,1.3-.2,3.3-.05,5.42,1.76,6.41,5.5,10.88,26.78,10.88,49.01Z"/><g><path d="M128.91,68.64c-11.05,0-20.03-11.71-20.03-26.11s8.99-26.12,20.03-26.12,20.03,11.71,20.03,26.12-8.99,26.11-20.03,26.11Zm0-46.1c-7.66,0-13.9,8.96-13.9,19.98s6.24,19.98,13.9,19.98,13.9-8.96,13.9-19.98-6.24-19.98-13.9-19.98Z"/><circle cx="128.91" cy="42.52" r="4.94"/></g><g><path d="M20.03,68.64C8.99,68.64,0,56.92,0,42.52S8.99,16.41,20.03,16.41s20.03,11.71,20.03,26.12-8.99,26.11-20.03,26.11Zm0-46.1c-7.66,0-13.9,8.96-13.9,19.98s6.24,19.98,13.9,19.98,13.9-8.96,13.9-19.98-6.24-19.98-13.9-19.98Z"/><circle cx="20.03" cy="42.52" r="4.94"/></g><g><rect x="188.68" y="17.66" width="37.82" height="5.89"/><rect x="204.64" y="20.61" width="5.89" height="46.65"/></g><g><path d="M260.09,67.26c0-15.26-3.09-44.7-13.74-44.7s-13.72,29.45-13.73,44.7h-6.13c0-5.38,.56-50.84,19.86-50.84s19.87,45.46,19.87,50.84h-6.13Z"/><circle cx="246.36" cy="43.04" r="4.64"/></g></g><polygon points="131.85 9.17 125.96 9.17 129.58 0 135.48 0 131.85 9.17"/><polygon points="247.49 9.17 241.6 9.17 245.22 0 251.12 0 247.49 9.17"/><polygon points="23.04 9.17 17.14 9.17 20.77 0 26.66 0 23.04 9.17"/></g><g><path d="M18.02,133.83c-3.54,0-6.67-.93-9.37-2.77-2.71-1.85-4.83-4.44-6.36-7.76-1.53-3.32-2.29-7.13-2.29-11.42s.76-8.07,2.29-11.34c1.53-3.27,3.65-5.83,6.36-7.68,2.71-1.85,5.83-2.78,9.37-2.78,3.06,0,5.79,.64,8.21,1.93,2.41,1.29,4.43,3.14,6.03,5.55,1.61,2.41,2.71,5.31,3.3,8.69h-2.66c-.8-4.4-2.52-7.82-5.15-10.26-2.63-2.44-5.87-3.66-9.74-3.66-3,0-5.66,.83-7.97,2.49-2.31,1.66-4.1,3.96-5.39,6.88s-1.93,6.32-1.93,10.18,.64,7.28,1.93,10.26c1.29,2.98,3.08,5.3,5.39,6.96,2.31,1.66,4.96,2.49,7.97,2.49,3.91,0,7.19-1.23,9.82-3.7,2.63-2.47,4.34-5.9,5.15-10.3h2.57c-.54,3.38-1.61,6.28-3.22,8.69-1.61,2.41-3.63,4.28-6.07,5.59-2.44,1.31-5.19,1.97-8.25,1.97Z"/><path d="M60.82,133.75c-2.84,0-5.44-.52-7.8-1.57-2.36-1.05-4.4-2.55-6.11-4.51-1.72-1.96-3.04-4.28-3.98-6.96-.94-2.68-1.41-5.63-1.41-8.85s.47-6.15,1.41-8.81c.94-2.65,2.27-4.95,3.98-6.88,1.72-1.93,3.75-3.42,6.11-4.47,2.36-1.05,4.96-1.57,7.8-1.57s5.44,.52,7.8,1.57c2.36,1.05,4.4,2.53,6.11,4.47,1.72,1.93,3.04,4.22,3.98,6.88,.94,2.66,1.41,5.59,1.41,8.81s-.47,6.17-1.41,8.85c-.94,2.68-2.27,5-3.98,6.96-1.72,1.96-3.75,3.46-6.11,4.51-2.36,1.05-4.96,1.57-7.8,1.57Zm0-2.25c3.22,0,6.07-.82,8.57-2.45,2.49-1.64,4.45-3.93,5.87-6.88,1.42-2.95,2.13-6.38,2.13-10.3s-.71-7.32-2.13-10.22c-1.42-2.9-3.38-5.16-5.87-6.8-2.49-1.64-5.35-2.45-8.57-2.45s-6.07,.82-8.57,2.45c-2.49,1.64-4.45,3.9-5.87,6.8-1.42,2.9-2.13,6.3-2.13,10.22s.71,7.35,2.13,10.3c1.42,2.95,3.38,5.24,5.87,6.88,2.49,1.64,5.35,2.45,8.57,2.45Z"/><path d="M117.79,116.37v-25.5h2.74v42.08h-2.66v-8.69c-1.02,2.74-2.79,5-5.31,6.8-2.52,1.8-5.44,2.69-8.77,2.69-2.84,0-5.32-.54-7.44-1.61-2.12-1.07-3.74-2.74-4.87-4.99-1.13-2.25-1.69-5.12-1.69-8.61v-27.68h2.74v26.95c0,4.99,1.11,8.52,3.34,10.58,2.23,2.07,5,3.1,8.33,3.1,2.74,0,5.12-.67,7.16-2.01,2.04-1.34,3.62-3.16,4.75-5.47,1.13-2.31,1.69-4.85,1.69-7.64Z"/><path d="M153.1,130.45v2.49c-.91,.32-1.74,.54-2.49,.64-.75,.11-1.5,.16-2.25,.16-2.04,0-3.92-.36-5.63-1.09-1.72-.72-3.1-1.94-4.14-3.66-1.05-1.72-1.57-4.05-1.57-7v-28.96h-10.62v-2.17h10.62v-12.47h2.74v12.47h13.84v2.17h-13.84v28.48c0,3.7,.84,6.25,2.53,7.64,1.69,1.4,3.77,2.09,6.24,2.09,.8,0,1.56-.05,2.25-.16,.7-.11,1.47-.32,2.33-.64Z"/><path d="M190.52,116.37v-25.5h2.74v42.08h-2.66v-8.69c-1.02,2.74-2.79,5-5.31,6.8-2.52,1.8-5.44,2.69-8.77,2.69-2.84,0-5.32-.54-7.44-1.61-2.12-1.07-3.74-2.74-4.87-4.99-1.13-2.25-1.69-5.12-1.69-8.61v-27.68h2.74v26.95c0,4.99,1.11,8.52,3.34,10.58,2.23,2.07,5,3.1,8.33,3.1,2.74,0,5.12-.67,7.16-2.01,2.04-1.34,3.62-3.16,4.75-5.47,1.13-2.31,1.69-4.85,1.69-7.64Z"/><path d="M209.34,109.29v23.65h-2.74v-42.08h2.65v10.38c1.39-3.32,3.51-6.02,6.36-8.09,2.84-2.06,6.01-3.1,9.49-3.1v2.9c-2.9,0-5.54,.72-7.92,2.17-2.39,1.45-4.29,3.41-5.71,5.87-1.42,2.47-2.13,5.23-2.13,8.29Z"/><path d="M248.2,133.83c-3.75,0-7.05-.93-9.9-2.77-2.84-1.85-5.06-4.47-6.64-7.84-1.58-3.38-2.37-7.29-2.37-11.75,0-4.08,.8-7.72,2.41-10.94,1.61-3.22,3.81-5.77,6.6-7.64,2.79-1.88,5.95-2.82,9.49-2.82,2.84,0,5.39,.54,7.64,1.61,2.25,1.07,4.18,2.6,5.79,4.59,1.61,1.99,2.83,4.34,3.66,7.08,.83,2.74,1.19,5.79,1.09,9.17h-35.4v-2.25h32.58c-.27-5.63-1.76-10.03-4.47-13.19-2.71-3.16-6.34-4.75-10.9-4.75-3.06,0-5.78,.82-8.17,2.45-2.39,1.64-4.26,3.88-5.63,6.72-1.37,2.84-2.05,6.14-2.05,9.9,0,4.08,.66,7.63,1.97,10.66,1.31,3.03,3.19,5.38,5.63,7.04,2.44,1.66,5.32,2.49,8.65,2.49,4.13,0,7.55-1.14,10.26-3.42,2.71-2.28,4.41-5.4,5.11-9.37h2.66c-.8,4.56-2.83,8.21-6.07,10.94-3.25,2.74-7.23,4.1-11.95,4.1Z"/></g></g></g></g></svg>