<?xml version="1.0" encoding="UTF-8"?><svg xmlns="http://www.w3.org/2000/svg" viewBox="0 0 607 161.45"><defs><style>.d{fill:#b2e67a;}</style></defs><g id="a"/><g id="b"><g id="c"><g><path class="d" d="M134.86,43.71L87.4,5.44c-8.99-7.25-21.82-7.25-30.81,0L9.14,43.7C3.36,48.36,0,55.39,0,62.81v74.1c0,13.55,10.99,24.54,24.54,24.54H119.45c13.55,0,24.54-10.99,24.54-24.54V62.81c0-7.42-3.36-14.44-9.14-19.1Zm-62.86,87.57c0,7.26-5.12,13.15-11.43,13.15h-21.02c-6.31,0-11.43-5.89-11.43-13.15h0c0-7.26,5.12-13.15,11.43-13.15h21.02c6.31,0,11.43,5.89,11.43,13.15h0Zm43.89-32.65c0,7.26-5.89,13.15-13.15,13.15H41.26c-7.26,0-13.15-5.89-13.15-13.15v-13.15H102.73c7.26,0,13.15,5.89,13.15,13.15h0Zm0-32.65c0,7.26-5.89,13.15-13.15,13.15H41.26c-7.26,0-13.15-5.89-13.15-13.15h0c0-7.26,5.89-13.15,13.15-13.15H115.88v13.15Z"/><g><path class="d" d="M204.35,58.13v23.76h49.29v20.04h-49.29v40.39h-21.97V54.83c0-9.08,7.36-16.44,16.44-16.44h57.79v19.75h-52.26Z"/><path class="d" d="M263.15,66.6h21.08v75.72h-21.08V66.6Z"/><path class="d" d="M367.52,142.32h-21.08v-44.1c0-9.95-4.01-14.55-12.92-14.55-9.95,0-15.74,5.79-15.74,15.89v42.76h-21.08V66.6h20.64v10.99c4.16-8.17,13.07-13.07,24.2-13.07,16.18,0,25.98,10.25,25.98,28.21v49.59Z"/><path class="d" d="M457.19,33.63v108.69h-20.79v-11.28c-4.31,8.31-13.96,13.36-24.8,13.36-19.75,0-34.15-16.48-34.15-39.94s14.4-39.94,34.15-39.94c10.69,0,19.9,4.6,24.5,12.77V33.63h21.08Zm-39.35,49.89c-11.73,0-19.01,8.31-19.01,20.94s7.28,20.94,19.01,20.94,19.01-8.31,19.01-20.94-7.28-20.94-19.01-20.94Z"/><path class="d" d="M543.63,66.6v75.72h-20.79v-11.28c-4.31,8.31-13.96,13.36-24.8,13.36-19.75,0-34.15-16.48-34.15-39.94s14.4-39.94,34.15-39.94c10.84,0,20.49,5.05,24.8,13.36v-11.28h20.79Zm-39.35,16.93c-11.73,0-19.01,8.31-19.01,20.94s7.28,20.94,19.01,20.94,19.01-8.31,19.01-20.94-7.28-20.94-19.01-20.94Z"/><path class="d" d="M607,86.19c-3.12-.59-6.24-.89-9.21-.89-12.92,0-18.71,6.09-18.71,20.34v36.67h-21.08V66.6h20.64v12.47c3.71-8.76,11.88-13.96,21.97-13.96,2.52,0,4.6,.3,6.38,1.04v20.04Z"/></g></g></g></g></svg>