<?xml version="1.0" encoding="UTF-8"?><svg xmlns="http://www.w3.org/2000/svg" viewBox="0 0 603.42 94.58"><defs><style>.d{fill:#b2e67a;}</style></defs><g id="a"/><g id="b"><g id="c"><g><g><g><path class="d" d="M133.81,93.17h-27.27c-24.42-12-40.81-19.03-55.05-32.15-13.21-12.18-7.5-25.08,3.38-35.88C69.45,10.67,93.32,0,93.32,0h67.2c-22.32,11.67-50.29,23.82-70.77,35.76-37.51,21.87,27.48,49.29,44.07,57.41Z"/><path class="d" d="M60.79,0C40.68,18.29,5.96,58.3,51.52,93.17H0L26.84,0H60.79Z"/></g><g><path class="d" d="M226.93,93.19l-15.69-39.6-16.02,13.81-7.4,25.8h-18.58L196.18,0h18.6l-12.02,41.73L250.44,0h23.04l-47.16,40.75,21.56,52.44h-20.94Z"/><path class="d" d="M246.78,66.98c3.02-26.5,20.87-40.73,44.04-40.73,17.62,0,28.42,11.16,26.62,26.93-.37,3.21-1.63,8.23-3.25,11.44h-49.11c-.25,.98-.36,1.95-.47,2.93-1,8.79,4.81,13.8,15.49,13.8,7.49,0,16.38-2.51,23.64-6.55l1.92,11.16c-9.24,5.58-19.57,8.64-30.25,8.64-19.83,0-30.52-10.88-28.62-27.61Zm20.65-13.25h31.77c.2-.56,.27-1.12,.33-1.67,.86-7.53-3.56-12.55-11.89-12.55-9.99,0-17.27,5.44-20.21,14.23Z"/><path class="d" d="M309.72,86.08l9.11-11.85c7.48,5.02,13.85,7.53,20.09,7.53,8.46,0,13.25-3.07,13.8-7.95,.33-2.93-1.26-4.74-6.69-5.86l-8.69-1.67c-10.86-2.09-15.71-8.23-14.73-16.88,1.53-13.53,13.03-23.16,32.59-23.16,9.99,0,18.55,2.79,24.4,7.53l-8.96,11.72c-4.74-3.49-11.07-6.42-17.59-6.42-7.08,0-11.68,2.65-12.22,7.39-.32,2.79,1.31,4.33,6.33,5.3l8.69,1.67c11,2.09,16.22,8.65,15.18,17.85-1.66,14.64-14.57,23.28-34.82,23.28-10.68,0-19.78-2.93-26.5-8.51Z"/><path class="d" d="M381.9,79.25c.19-1.67,.53-3.49,1.17-5.44l9.19-32.22h-12.49l3.93-13.95h12.63l5.44-18.7h17.63l-5.44,18.7h15.26l-3.94,13.95h-15.26l-9.11,31.52c-.06,.56-.48,1.81-.55,2.37-.38,3.35,1.68,4.74,6.12,4.74,2.63,0,5.33-.56,8.03-1.11l-3.62,12.41c-3.64,1.53-7.5,2.51-13.18,2.51-11.37,0-16.94-4.74-15.81-14.78Z"/><path class="d" d="M420.16,93.19l18.77-65.55h16.79l-3.42,11.86c6.51-9.77,12.95-12.7,20.86-12.7,2.5,0,4.55,.28,5.59,.84l-4.83,16.88c-2.43-.56-5.02-.98-7.66-.98-8.33,0-15.74,5.44-19.14,17.16l-9.22,32.49h-17.75Z"/><path class="d" d="M469.49,66.98c2.98-26.5,20.82-40.73,43.99-40.73,17.62,0,28.43,11.16,26.65,26.93-.36,3.21-1.62,8.23-3.24,11.44h-49.11c-.25,.98-.36,1.95-.47,2.93-.99,8.79,4.82,13.8,15.5,13.8,7.49,0,16.37-2.51,23.63-6.55l1.93,11.16c-9.23,5.58-19.56,8.64-30.24,8.64-19.83,0-30.54-10.88-28.65-27.61Zm20.64-13.25h31.77c.2-.56,.26-1.12,.33-1.67,.85-7.53-3.58-12.55-11.9-12.55-9.99,0-17.26,5.44-20.2,14.23Z"/><path class="d" d="M538.35,93.19L565.09,0h17.77l-26.75,93.19h-17.75Z"/></g></g><g><path class="d" d="M589.97,7.51V1.32h-2.21V0h5.96V1.32h-2.23V7.51h-1.52Z"/><path class="d" d="M601.9,7.51V1.53l-2.16,5.98h-1.3l-2.16-5.98V7.51h-1.51V0h2.38l1.93,5.32L601.02,0h2.39V7.51h-1.52Z"/></g></g></g></g></svg>