<?xml version="1.0" encoding="UTF-8"?><svg xmlns="http://www.w3.org/2000/svg" viewBox="0 0 607 154.23"><defs><style>.d{fill:#b2e67a;}</style></defs><g id="a"/><g id="b"><g id="c"><g><path class="d" d="M131.84,0H22.4C10.03,0,0,10.03,0,22.4v109.44c0,12.37,10.03,22.4,22.4,22.4h109.44c12.37,0,22.4-10.03,22.4-22.4V22.4c0-12.37-10.03-22.4-22.4-22.4Zm-46.69,42.3c12.07,0,21.85,9.78,21.85,21.85s-9.78,21.85-21.85,21.85-21.85-9.78-21.85-21.85,9.78-21.85,21.85-21.85Zm42.9,80.85H55.68c-16.25,0-29.43-13.18-29.43-29.43v-.06h-.06V31.09h29.49v62.57h42.93c16.25,0,29.43,13.18,29.43,29.43v.06Z"/><g><path class="d" d="M254.5,102.18v18.16h-64.14V27.57h19.61V102.18h44.53Z"/><path class="d" d="M327.58,52.75V120.33h-18.55v-10.07c-3.84,7.42-12.46,11.93-22.13,11.93-17.62,0-30.48-14.71-30.48-35.65s12.85-35.65,30.48-35.65c9.67,0,18.29,4.51,22.13,11.93v-10.07h18.55Zm-35.12,15.11c-10.47,0-16.96,7.42-16.96,18.68s6.49,18.68,16.96,18.68,16.96-7.42,16.96-18.68-6.49-18.68-16.96-18.68Z"/><path class="d" d="M403.8,52.75l-25.44,67.58h-20.54l-25.44-67.58h20.14l15.64,45.85,15.5-45.85h20.14Z"/><path class="d" d="M418.6,92.11c1.72,9.41,8.08,14.05,18.15,14.05,7.16,0,12.99-2.38,17.49-7.29l10.73,11.13c-6.49,7.82-16.56,12.19-28.89,12.19-21.87,0-36.44-13.91-36.44-35.38s13.91-35.91,34.59-35.91,33.26,13.78,33.26,34.72c0,1.99-.13,4.24-.4,6.49h-48.5Zm30.21-12.19c-.66-8.48-5.83-13.12-14.44-13.12s-14.18,4.64-15.77,13.12h30.21Z"/><path class="d" d="M477.28,25.97h18.82V122.98h-18.82V25.97Z"/><path class="d" d="M512.2,25.97h18.82V122.98h-18.82V25.97Z"/><path class="d" d="M558.1,94.75c1.72,9.41,8.08,14.05,18.15,14.05,7.16,0,12.99-2.38,17.49-7.29l10.73,11.13c-6.49,7.82-16.56,12.19-28.89,12.19-21.87,0-36.44-13.91-36.44-35.38s13.91-35.91,34.59-35.91,33.26,13.78,33.26,34.72c0,1.99-.13,4.24-.4,6.49h-48.5Zm30.21-12.19c-.66-8.48-5.83-13.12-14.44-13.12s-14.18,4.64-15.77,13.12h30.21Z"/></g></g></g></g></svg>