<svg xmlns="http://www.w3.org/2000/svg" width="59" height="21" viewBox="0 0 59 21" fill="none">
  <path d="M54.4348 0V1.82335C54.4348 3.69386 53.4396 4.66841 51.5756 4.66841H49.6801V2.70359C49.7432 0.911677 50.77 0 52.6024 0H54.4348Z" fill="#B2E67A"/>
  <path d="M59 6.44461V10.9558H54.4348V21H49.6801V7.49775L47.1684 10.9558C47.1684 10.9558 41.529 11.0501 39.8388 12.3391V21H35.0841V6.46033H39.8388V9.74551C39.8388 9.74551 42.2083 6.50748 46.1258 6.44461H59Z" fill="#B2E67A"/>
  <path d="M16.2704 12.5591V20.9843H11.5157V13.6437C11.5157 11.4588 10.5363 10.3743 8.59331 10.3743C7.47175 10.3743 6.19224 10.8301 4.75475 11.7575V20.9843H0V6.44461H4.75475V9.17964H4.83373C6.53976 7.35629 8.53012 6.44461 10.789 6.44461C12.5898 6.44461 13.9641 6.97904 14.8803 8.06362C15.7965 9.1482 16.2704 10.6415 16.2704 12.5591Z" fill="#B2E67A"/>
  <path d="M31.7826 7.76497C30.6295 6.88473 28.7971 6.46033 26.317 6.46033C24.3266 6.46033 22.0519 6.69611 19.4771 7.16766V11.0816C21.6886 10.6257 23.6158 10.39 25.2112 10.39C26.4592 10.39 27.3596 10.5629 27.9125 10.9401C28.4653 11.3016 28.7497 11.9304 28.7497 12.8263V14.0996H25.2744C23.1577 14.0996 21.3411 14.5397 19.8404 15.4199C18.3398 16.3001 17.5973 17.762 17.5973 19.774C17.5973 20.1984 17.6289 20.607 17.6921 20.9843H22.9681C22.5574 20.5913 22.3363 20.0569 22.3363 19.3653C22.3363 17.7305 23.4104 16.9289 25.5588 16.9289H28.7339V20.9843H33.4886V12.5749C33.4886 10.2485 32.9042 8.64521 31.751 7.76497H31.7826Z" fill="#B2E67A"/>
</svg>