<?xml version="1.0" encoding="UTF-8"?><svg xmlns="http://www.w3.org/2000/svg" viewBox="0 0 59.36 58.51"><defs><style>.d{fill:#00ab62;}</style></defs><g id="a"/><g id="b"><g id="c"><path class="d" d="M36.53,0C13.63,0,.88,11.46,0,33.97v24.54H23.74c23.19,0,35.62-12.13,35.62-35.67V0h-22.83Zm9.19,43.68h-9.37v-14.55c0-4.33-1.93-6.49-5.77-6.49-2.21,0-4.73,.92-7.57,2.75v18.29H13.64V14.86l9.37-.03v5.44h.14c3.37-3.61,7.28-5.41,11.75-5.41,3.56,0,6.25,1.07,8.08,3.21,1.82,2.14,2.74,5.1,2.74,8.9v16.71Z"/></g></g></svg>